<svg xmlns="http://www.w3.org/2000/svg" version="1.1"
    xmlns:xlink="http://www.w3.org/1999/xlink"
    xmlns:svgjs="http://svgjs.dev/svgjs" viewBox="0 0 800 800" opacity="1">
    <defs>
        <linearGradient x1="50%" y1="0%" x2="50%" y2="100%" id="uundulate-grad">
            <stop stop-color="hsl(246, 73%, 48%)" stop-opacity="1" offset="45%"></stop>
            <animate attributeName="offset" values="0;1;0" dur="1s" repeatCount="indefinite" />
            <stop stop-color="hsl(270, 100%, 50%)" stop-opacity="1" offset="100%"></stop>
        </linearGradient>
    </defs>
    <g stroke-width="1" stroke="url(#uundulate-grad)" fill="none">
        <path d="M584.9890884701032 382.29048254465533C591.9282603510619 450.79564674311996 562.4422787039462 546.5098203686858 518.0816291710623 575.464061138297C473.7209796381785 604.4183019079082 434.9208430599199 531.8491354353935 372.0579707122611 521.2708382387896C309.1950983646024 510.69254104218567 232.59915782168378 552.1025541863394 216.33984190230012 524.6882345945985C200.08052598291653 497.2739150028575 273.1499876169962 449.91801703059787 294.0132542992198 389.68210419843325C314.8765209814433 329.44619136626864 276.74178242629824 265.35644283620104 316.48352197697335 235.55585300020812C356.2252615276484 205.7552631642152 428.8349444563919 216.06955849724073 484.7736041424605 246.63927298566733C540.7122638285291 277.2089874740939 578.0499165891445 313.78531834619076 584.9890884701032 382.29048254465533C591.9282603510619 450.79564674311996 562.4422787039462 546.5098203686858 518.0816291710623 575.464061138297 "></path>
        <path d="M579.0216684940956 382.86174056583326C585.7369961208298 449.1570607578958 557.2021751720082 541.7836803955402 514.2725143337335 569.8039133983898C471.3428534954588 597.8241464012392 433.79433422617626 527.5959207826766 372.95929647037747 517.3588589795115C312.1242587145787 507.1217971763465 237.99915496336712 547.1960034448823 222.26433310589908 520.6660167431976C206.52951124843105 494.13603004151287 277.2418934749598 448.3077416812615 297.43215155453095 390.01492281142487C317.62240963410215 331.7221039415881 280.71782393557464 269.6997666544259 319.1775718878409 240.86048616798115C357.6373198401071 212.02120568153634 427.90475493243946 222.0027818102708 482.03894172540913 251.58637647649005C536.1731285183787 281.1699711427093 572.3063408673613 316.56642037377077 579.0216684940956 382.86174056583326C585.7369961208298 449.1570607578958 557.2021751720082 541.7836803955402 514.2725143337335 569.8039133983898 "></path>
        <path d="M573.0543095532441 383.43302910458937C579.545792925754 447.5185052902498 551.9621326752264 537.0575709399727 510.46346053156094 564.1437961760606C468.9647883878954 591.2300214121485 432.6678864275889 523.3427366475379 373.86068326365 513.4469102378117C315.05348009971124 503.55108382808555 243.3992131402067 542.2894832210036 228.18888534465424 516.6438294093748C212.97855754910182 490.99817559774624 281.3338603680796 446.6974968495034 300.85110984499846 390.34777194199455C320.36835932191724 333.9980470344857 284.69392648000735 274.0431209902289 321.87168283386467 246.1651498533323C359.04943918772204 218.28717871643568 426.9746264436433 227.93603564087897 479.3043403435139 256.5335104848909C531.6340542433845 285.13098532890285 566.5628261807344 319.34755291892895 573.0543095532441 383.43302910458937C579.545792925754 447.5185052902498 551.9621326752264 537.0575709399727 510.46346053156094 564.1437961760606 "></path>
        <path d="M567.0869200948147 384.0042871257673C573.3545592131 445.8799193050256 546.7220596608665 532.3314309668272 506.65437621181013 558.4836484361533C466.5866927627537 584.6358659054797 431.5414081114234 519.0895219948211 374.76203953934447 509.5349309785338C317.9826709672656 499.9803399622464 248.79924079946818 537.3829324795465 234.11340706583132 512.621611557974C219.42757333219447 487.8602906364015 285.42579674362133 445.08722150016706 304.27003761788774 390.6805905549861C323.1142784921542 336.2739596098051 288.6699985068619 278.38644480845375 324.5657632623103 251.4697830211053C360.46152801775884 224.55312123375683 426.04446743726896 233.86925895390897 476.56970844404066 261.48061397571365C527.0949494508124 289.0919689975183 560.8192809765294 322.12865494650896 567.0869200948147 384.0042871257673C573.3545592131 445.8799193050256 546.7220596608665 532.3314309668272 506.65437621181013 558.4836484361533 "></path>
        <path d="M561.1195001188071 384.5755756645234C567.1632949828679 444.2413638373796 541.4819561289285 527.6053215112596 502.8452613744812 552.8235312138243C464.20856662003405 578.0417409163888 430.41489927767975 514.8363378596823 375.6633652974608 505.6229822368339C320.9118313172419 496.4096266139853 254.19923794115147 532.4764122556676 240.0378982694303 508.59942422415133C225.87655859770905 484.722436192635 289.5177026015849 443.47697666840884 307.68893487319895 391.0134396855558C325.86016714481303 338.5499027027027 292.6460400161383 282.72979914425673 327.2598131731779 256.77444670645644C361.8735863302175 230.81909426865616 425.1142779133165 239.80251278451715 473.8350460269892 266.4277479841145C522.5558141406619 293.0529831837118 555.0757052547463 324.90978749166715 561.1195001188071 384.5755756645234C567.1632949828679 444.2413638373796 541.4819561289285 527.6053215112596 502.8452613744812 552.8235312138243 "></path>
        <path d="M555.1521411779556 385.1468336857013C560.9720917877921 442.60277785215544 536.2419136321466 522.8791815381139 499.0362075723086 547.163383473917C461.8305015124706 571.44758540972 429.28845147909226 510.5831232069655 376.56475209073335 501.71100297755584C323.84105270237444 492.83888274814615 259.59929611799106 527.5698615142105 245.96245050818544 504.5772063727504C232.32560489837982 481.5845512312902 293.60966949470475 441.8667013190725 311.1078931636664 391.34625829854735C328.6061168326281 340.82581527802216 296.622142560571 287.07312296248165 329.9539241192017 262.0790798742295C363.2857056778324 237.08503678597737 424.18414942452046 245.7357360975472 471.10044464509406 271.3748514749372C518.0167398656678 297.0139668523272 549.3321905681194 327.6908895192472 555.1521411779556 385.1468336857013C560.9720917877921 442.60277785215544 536.2419136321466 522.8791815381139 499.0362075723086 547.163383473917 "></path>
        <path d="M549.1847517195263 385.71812222445743C554.7808580751381 440.9642223845095 531.0018406177868 518.1530720825465 495.22712325255793 541.5032662515878C459.45240588732895 564.8534604206291 428.16197316292676 506.32993907182686 377.4661083664278 497.79905423585603C326.7702435699288 489.2681693998852 264.9993237772525 522.6633412903317 251.88697222936253 500.55501903892764C238.77462068147247 478.4466967875237 297.70160587024645 440.2564564873144 314.52682093655574 391.67910742911704C331.3520360028651 343.10175837091975 300.5982145874255 291.41647729828463 332.64800454764736 267.38374355958064C364.6977945078692 243.35100982087664 423.25399041814615 251.66898992815533 468.3658127456208 276.32198548333804C513.4776350730956 300.97498103852075 543.5886453639143 330.47202206440534 549.1847517195263 385.71812222445743C554.7808580751381 440.9642223845095 531.0018406177868 518.1530720825465 495.22712325255793 541.5032662515878 "></path>
        <path d="M543.2173317435186 386.2894107632135C548.589593844906 439.3256669168635 525.7617370858487 513.426962626979 491.418008415229 535.8431490292587C457.07427974460927 558.2593354315384 427.0354643291831 502.0767549366881 378.36743412454416 493.8871054941561C329.69940391990514 485.69745605162416 270.39932091893587 517.7568210664529 257.81146343296143 496.53283170510497C245.22360594698705 475.3088423437571 301.79351172821004 438.64621165555616 317.94571819186694 392.0119565596867C334.0979246555239 345.37770146381735 304.5742560967019 295.7598316340876 335.3420544585149 272.6884072449318C366.1098528203279 249.61698285577597 422.3238008941937 257.6022437587635 465.63115032856945 281.26911949173893C508.9384997629452 304.9359952247143 537.8450696421312 333.2531546095635 543.2173317435186 386.2894107632135C548.589593844906 439.3256669168635 525.7617370858487 513.426962626979 491.418008415229 535.8431490292587 "></path>
        <path d="M537.2499728026673 386.86066878439146C542.3983906498302 437.68708093163934 520.521694589067 508.7008226538335 487.6089546130563 530.1830012893514C454.69621463704584 551.6651799248694 425.90901653059575 497.8235402839713 379.2688209178167 489.9751262348782C332.62862530503764 482.126712185785 275.79937909577546 512.8502703249958 263.73601567171664 492.51061385370406C251.67265224765782 472.17095738241244 305.88547862132987 437.0359363062198 321.3646764823344 392.3447751726783C336.843874343339 347.65361403913676 308.5503586411346 300.1031554523125 338.0361654045387 277.99304041270483C367.5219721679428 255.88292537309712 421.3936724053976 263.53546707179356 462.89654894667433 286.21622298256165C504.399425487951 308.89697889332973 532.1015549555043 336.0342566371435 537.2499728026673 386.86066878439146C542.3983906498302 437.68708093163934 520.521694589067 508.7008226538335 487.6089546130563 530.1830012893514 "></path>
        <path d="M531.2825833442378 387.4319573231475C536.2071569371763 436.0485254639933 515.2816215747071 503.97471319826593 483.7998702933056 524.5228840670222C452.3181190119042 545.0710549357786 424.78253821443025 493.5703561488326 380.17017719351117 486.0631774931783C335.5578161725921 478.55599883752393 281.19940675503693 507.94375010111685 269.6605373928937 488.4884265198814C258.12166803075047 469.0331029386458 309.9774149968716 435.4256914744616 324.78360425522374 392.67762430324797C339.58979351357596 349.92955713203435 312.52643066798913 304.44650978811546 340.73024583298434 283.29770409805593C368.9340609979796 262.14889840799646 420.46351339902327 269.4687209024017 460.1619170472011 291.1633569909625C499.86032069537873 312.8579930795233 526.3580097512993 338.8153891823017 531.2825833442378 387.4319573231475C536.2071569371763 436.0485254639933 515.2816215747071 503.97471319826593 483.7998702933056 524.5228840670222 "></path>
        <path d="M525.3151938858083 388.0032153443255C530.0159232245223 434.4099394787692 510.0415485603471 499.24857322512025 479.9907859735549 518.862736327115C449.9400233867626 538.4768994291097 423.65605989826474 489.3171414961157 381.07153346920563 482.15119823390023C338.48700704014647 474.98525497168475 286.5994344142984 503.0371993596598 275.58505911407076 484.4662086684805C264.5706838138431 465.8952179773012 314.0693513724133 433.81541612512524 328.20253202811307 393.0104429162396C342.3357126838129 352.2054697073538 316.50250269484366 308.7898336063403 343.42432626143 288.60233726582896C370.3461498280164 268.41484092531766 419.533354392649 275.40194421543174 457.42728514772773 296.1104604817852C495.32121590280644 316.8189767481387 520.6144645470943 341.5964912098817 525.3151938858083 388.0032153443255C530.0159232245223 434.4099394787692 510.0415485603471 499.24857322512025 479.9907859735549 518.862736327115 "></path>
        <path d="M519.3477739098007 388.57450388308155C523.8246589942902 432.77138401112325 504.80144502840915 494.5224637695528 476.181671136226 513.2026191047859C447.5618972440428 531.8827744400189 422.5295510645211 485.06395736097704 381.9728592273219 478.23924949220043C341.4161673901228 471.4145416234237 291.9994315559817 498.13067913578095 281.5095503176697 480.4440213346578C271.0196690793577 462.75736353353454 318.16125723037686 432.20517129336713 331.6214292834243 393.34329204680927C345.08160133647175 354.4814128002514 320.4785442041201 313.1331879421433 346.1183761722976 293.9070009511801C371.75820814047506 274.68081396021694 418.6031648686966 281.3351980460399 454.69262273067636 301.0575944901861C490.78208059265614 320.77999093433226 514.8708888253111 344.3776237550399 519.3477739098007 388.57450388308155C523.8246589942902 432.77138401112325 504.80144502840915 494.5224637695528 476.181671136226 513.2026191047859 "></path>
        <path d="M513.3804149689494 389.14576190425953C517.6334557992143 431.1327980258991 499.5614025316273 489.79632379640725 472.3726173340533 507.54247136487857C445.1838321364794 525.28861893335 421.40310326593374 480.81074270826025 382.8742460205945 474.3272702329224C344.3453887752553 467.8437977575845 297.3994897328213 493.2241283943239 287.4341025564249 476.4218034832569C277.46871538002847 459.6194785721899 322.2532241234967 430.5948959440308 335.04038757389173 393.6761106598008C347.82755102428683 356.7573253755709 324.45464674855276 317.47651176036817 348.81248711832137 299.21163411895316C373.17032748809 280.94675647753814 417.6730363799004 287.2684213590699 451.95802134878124 306.0046979810088C486.243006317662 324.74097460294763 509.1273741386842 347.1587257826199 513.3804149689494 389.14576190425953C517.6334557992143 431.1327980258991 499.5614025316273 489.79632379640725 472.3726173340533 507.54247136487857 "></path>
        <path d="M507.4130255105198 389.7170504430156C511.4422220865604 429.49424255825306 494.3213295172675 485.0702143408398 468.5635330143026 501.8823541425495C442.80573651133784 518.6944939442592 420.27662494976823 476.5575585731216 383.775602296289 470.4153214912226C347.2745796428097 464.2730844093236 302.79951739208275 488.31760817044506 293.35862427760196 472.3996161494342C283.9177311631211 456.4816241284233 326.3451604990384 428.98465111227256 338.45931534678107 394.0089597903705C350.5734701945238 359.03326846846846 328.4307187754073 321.81986609617115 351.50656754676703 304.5162978043043C374.5824163181268 287.2127295124374 416.7428773735262 293.2016751896781 449.22338944930794 310.95183198940964C481.7039015250897 328.7019887891412 503.3838289344792 349.9398583277781 507.4130255105198 389.7170504430156C511.4422220865604 429.49424255825306 494.3213295172675 485.0702143408398 468.5635330143026 501.8823541425495 "></path>
        <path d="M501.4456055345122 390.28833898177163C505.25095785632834 427.8556870906071 489.0812259853294 480.34410488527226 464.7544181769738 496.2222369202203C440.42761036861805 512.1003689551684 419.1501161160246 472.30437443798286 384.67692805440527 466.50337274952267C350.203739992786 460.70237106106254 308.1995145337661 483.4110879465661 299.28311548120087 468.37742881561144C290.36671642863564 453.3437696846567 330.437066357002 427.37440628051434 341.8782126020923 394.3418089209402C353.3193588471826 361.30921156136606 332.40676028468374 326.16322043197414 354.20061745763456 309.8209614896555C375.99447463058544 293.47870254733675 415.81268784957376 299.1349290202863 446.4887270322565 315.8989659978105C477.1647662149394 332.66300297533473 497.64025321269617 352.7209908729362 501.4456055345122 390.28833898177163C505.25095785632834 427.8556870906071 489.0812259853294 480.34410488527226 464.7544181769738 496.2222369202203 "></path>
        <path d="M495.47824659366086 390.8595970029496C499.05975466125244 426.21710110538294 483.8411834885476 475.61796491212664 460.9453643748011 490.562089180313C438.0495452610546 505.50621344849947 418.0236683174372 468.051159785266 385.57831484767786 462.59139349024474C353.13296137791855 457.13162719522336 313.5995727106057 478.50453720510916 305.2076677199561 464.3552109642106C296.81576272930647 450.205884723312 334.52903325012176 425.76413093117804 345.29717089255973 394.6746275339318C356.0653085349977 363.5851241366855 336.3828628291164 330.506544250199 356.89472840365835 315.1255946574285C377.40659397820036 299.74464506465796 414.8825593607776 305.0681523333163 443.7541256503614 320.84606948863325C472.6256919399452 336.62398664395016 491.89673852606927 355.5020929005163 495.47824659366086 390.8595970029496C499.05975466125244 426.21710110538294 483.8411834885476 475.61796491212664 460.9453643748011 490.562089180313 "></path>
        <path d="M489.5108571352314 391.43087028291666C492.8685209485984 424.5785303789479 478.60111047418764 470.8918401977701 457.13628005505035 484.9019566991949C435.671449635913 498.9120732006196 416.8971900012717 463.7979603913383 386.4796711233723 458.67942948975576C356.06215224547293 453.56089858817325 318.99960036986715 473.59800172244115 311.1321894411331 460.3330083715988C303.2647785123991 447.06801502075643 338.62096962566346 424.15387084063076 348.71609866544907 395.00746140571243C358.81122770523467 365.86105197079405 340.3589348559709 334.849883327213 359.58880883210406 320.43024308399055C378.81868280823716 306.0106028407682 413.9524003544033 311.0013909051354 441.01949375088816 325.793188238245C468.08658714737294 340.58498557135465 486.15319332186425 358.2832101868854 489.5108571352314 391.43087028291666C492.8685209485984 424.5785303789479 478.60111047418764 470.8918401977701 457.13628005505035 484.9019566991949 "></path>
        <path d="M483.5434676768018 392.00214356288365C486.6772872359445 422.9399596525128 473.3610374598278 466.1657154834136 453.3271957352996 479.24182421807666C433.2933540107714 492.31793295273985 415.7707116851062 459.54476099741055 387.38102739906674 454.7674654892669C358.99134311302737 449.9901699811232 324.3996280291286 468.69146623977326 317.0567111623102 456.310805778987C309.71379429549177 443.93014531820074 342.71290600120517 422.54361075008353 352.1350264383384 395.34029527749306C361.55714687547163 368.1369798049026 344.3350068828255 339.1932224042269 362.2828892605497 325.73489151055264C380.23077163827395 312.27656061687844 413.022241348029 316.9346294769545 438.28486185141486 330.7403069878568C463.5474823548007 344.54598449875914 480.40964811765923 361.0643274732545 483.5434676768018 392.00214356288365C486.6772872359445 422.9399596525128 473.3610374598278 466.1657154834136 453.3271957352996 479.24182421807666 "></path>
        <path d="M477.5760629595833 392.57341684285063C480.48603826450153 421.3013889260777 468.1209491866788 461.43959076905696 449.5180961567598 473.5816917369585C430.9152431268408 485.72379270486 414.6442181101516 455.29156160348276 388.28236841597214 450.8555014887779C361.9205187217927 446.4194413740731 329.799640429601 463.78493075710526 322.9812176246982 452.2886031863752C316.1627948197954 440.7922756156451 346.8048271179578 420.93335065953625 355.55393895243867 395.6731291492737C364.3030507869195 370.4129076390111 348.31106365089096 343.5365614812408 364.9769544302063 331.03953993711474C381.6428452095217 318.54251839298865 412.0920670828657 322.8678680487736 435.5502146931525 335.68742573746863C459.00836230343936 348.50698342616363 474.66608765466515 363.8454447596236 477.5760629595833 392.57341684285063C480.48603826450153 421.3013889260777 468.1209491866788 461.43959076905696 449.5180961567598 473.5816917369585 "></path>
        <path d="M471.6086735011538 393.1446901228177C474.2948045518475 419.6628181996427 462.8808761723189 456.71346605470046 445.70901183700903 467.9215592558403C428.53714750169917 479.1296524569801 413.5177397939861 451.038362209555 389.1837246916666 446.943537488289C364.84970958934707 442.848712767023 335.1996680888625 458.87839527443737 328.90573934587525 448.2664005937634C322.61181060288806 437.6544059130895 350.8967634934995 419.323090568989 358.972866725328 396.0059630210543C367.0489699571565 372.68883547311964 352.2871356777455 347.87990055825475 367.671034858652 336.34418836367684C383.0549340395585 324.8084761690989 411.1619080764914 328.8011066205927 432.81558279367925 340.6345444870804C454.4692575108671 352.4679823535681 468.9225424504601 366.62656204599267 471.6086735011538 393.1446901228177C474.2948045518475 419.6628181996427 462.8808761723189 456.71346605470046 445.70901183700903 467.9215592558403 "></path>
        <path d="M465.64128404272435 393.7159634027847C468.1035708391936 418.0242474732076 457.640803157959 451.9873413403439 441.8999275172583 462.26142677472205C426.15905187655756 472.53551220910026 412.3912614778206 446.78516281562725 390.0850809673611 443.0315734878001C367.7789004569015 439.2779841599729 340.5996957481239 453.97185979176936 334.83026106705233 444.24419800115163C329.0608263859807 434.51653621053384 354.9886998690412 417.71283047844173 362.39179449821734 396.3387968928349C369.79488912739345 374.9647633072281 356.26320770460006 352.22323963526867 370.36511528709764 341.64883679023893C384.46702286959527 331.07443394520914 410.2317490701171 334.7343451924118 430.080950894206 345.5816632366922C449.93015271829483 356.42898128097255 463.1789972462551 369.4076793323618 465.64128404272435 393.7159634027847C468.1035708391936 418.0242474732076 457.640803157959 451.9873413403439 441.8999275172583 462.26142677472205 "></path>
        <path d="M459.6738945842949 394.2872366827517C461.9123371265396 416.38567674677256 452.4007301435991 447.26121662598734 438.0908431975075 456.60129429360387C423.78095625141594 465.9413719612204 411.2647831616551 442.53196342169946 390.9864372430555 439.11960948731115C370.7080913244559 435.7072555529228 345.9997234073854 449.0653243091014 340.75478278822936 440.22199540853984C335.50984216907335 431.3786665079782 359.08063624458293 416.1025703878945 365.81072227110667 396.67163076461554C372.5408082976304 377.24069114133664 360.2392797314546 356.5665787122826 373.0591957155433 346.953485216801C385.87911169963206 337.3403917213194 409.3015900637428 340.66758376423087 427.3463189947327 350.52878198630395C445.3910479257226 360.38998020837704 457.4354520420501 372.18879661873086 459.6738945842949 394.2872366827517C461.9123371265396 416.38567674677256 452.4007301435991 447.26121662598734 438.0908431975075 456.60129429360387 "></path>
        <path d="M453.70650512586536 394.8585404802969C455.72110341388566 414.7471365379156 447.1606571292392 442.53512242920897 434.2817588777568 450.9411923300638C421.4028606262744 459.34726223091866 410.1383048454896 438.27879454534985 391.88779351874996 435.20767600440035C373.63728219201033 432.13655746345086 351.39975106664684 444.1588193440116 346.67930450940645 436.1998233335062C341.95885795216606 428.2408273230007 363.17257262012464 414.49234081492534 369.229650043996 397.00449515397435C375.28672746786737 379.5166494930233 364.2153517583091 360.90994830687464 375.753276143989 352.2581641609412C387.29120052966886 343.6063800150078 408.37143105736857 346.6008528536281 424.6116870952594 355.4759312534939C440.8519431331503 364.35100965335965 451.69190683784507 374.9699444226781 453.70650512586536 394.8585404802969C455.72110341388566 414.7471365379156 447.1606571292392 442.53512242920897 434.2817588777568 450.9411923300638 "></path>
        <path d="M447.7391156674359 395.4297985014748C449.5298697012317 413.10855055269144 441.92058411487926 437.8089824560633 430.472674558006 445.2810445901565C419.0247650011328 452.75310672424973 409.0118265293241 434.025579892633 392.7891497944444 431.29569674512237C376.5664730595647 428.5658135976117 356.7997787259083 439.2522686025546 352.6038262305835 432.17760548210526C348.4078737352587 425.102942361656 367.26450899566635 412.88206546558905 372.64857781688534 397.3373137669659C378.0326466381043 381.79256206834276 368.19142378516364 365.2532721250995 378.44735657243467 357.5627973287142C388.70328935970565 349.87232253232895 407.44127205099426 352.53407616665817 421.87705519578617 360.4230347443166C436.3128383405781 368.3119933219751 445.9483616336401 377.7510464502582 447.7391156674359 395.4297985014748C449.5298697012317 413.10855055269144 441.92058411487926 437.8089824560633 430.472674558006 445.2810445901565 "></path>
        <path d="M441.7717262090064 396.00107178144185C443.3386359885777 411.4699798262564 436.68051110051937 433.0828577417068 426.66359023825527 439.62091210903833C416.64666937599117 446.1589664763699 407.8853482131586 429.7723804987053 393.69050607013884 427.38373274463345C379.49566392711915 424.9950849905616 362.1998063851698 434.34573311988663 358.52834795176057 428.15540288949353C354.85688951835135 421.9650726591004 371.35644537120805 411.27180537504177 376.06750558977467 397.6701476387465C380.7785658083413 384.0684899024513 372.1674958120182 369.5966112021134 381.14143700088033 362.8674457552763C390.11537818974244 356.1382803084392 406.51111304461995 358.4673147384772 419.1424232963129 365.3701534939284C431.7737335480058 372.27299224937957 440.2048164294351 380.53216373662724 441.7717262090064 396.00107178144185C443.3386359885777 411.4699798262564 436.68051110051937 433.0828577417068 426.66359023825527 439.62091210903833 "></path>
        <path d="M435.8043367505769 396.57234506140884C437.14740227592375 409.8314090998213 431.4404380861595 428.35673302735023 422.8545059185045 433.96077962792015C414.26857375084955 439.56482622849006 406.758869896993 425.5191811047775 394.5918623458333 423.4717687441445C382.42485479467354 421.4243563835115 367.59983404443125 429.4391976372187 364.45286967293765 424.1332002968817C361.305905301444 418.82720295654474 375.44838174674976 409.6615452844945 379.486433362664 398.00298151052715C383.52448497857824 386.3444177365598 376.14356783887274 373.93995027912734 383.835517429326 368.1720941818384C391.52746701977924 362.40423808454943 405.5809540382457 364.40055331029635 416.4077913968396 370.3172722435402C427.23462875543356 376.23399117678406 434.46127122523006 383.31328102299636 435.8043367505769 396.57234506140884C437.14740227592375 409.8314090998213 431.4404380861595 428.35673302735023 422.8545059185045 433.96077962792015 "></path>
        <path d="M429.83694729214744 397.1436183413759C430.9561685632698 408.1928383733863 426.2003650717995 423.6306083129937 419.04542159875376 428.3006471468019C411.890478125708 432.9706859806102 405.6323915808275 421.26598171084976 395.4932186215278 419.5598047436556C385.354045662228 417.8536277764614 372.9998617036927 424.53266215455074 370.3773913941147 420.1109977042699C367.7549210845367 415.6893332539891 379.54031812229147 408.05128519394725 382.90536113555333 398.33581538230777C386.2704041488152 388.62034557066835 380.11963986572727 378.2832893561413 386.52959785777165 373.4767426084005C392.93955584981603 368.6701958606597 404.65079503187144 370.33379188211546 413.6731594973663 375.264390993152C422.6955239628613 380.19499010418855 428.71772602102504 386.09439830936543 429.83694729214744 397.1436183413759C430.9561685632698 408.1928383733863 426.2003650717995 423.6306083129937 419.04542159875376 428.3006471468019 "></path>
        <path d="M423.869557833718 397.7148916213429C424.7649348506159 406.5542676469512 420.96029205743963 418.9044835986371 415.236337279003 422.6405146656837C409.5123825005664 426.37654573273034 404.505913264662 417.01278231692197 396.3945748972222 415.6478407431666C388.28323652978236 414.28289916941134 378.3998893629541 419.62612667188273 376.30191311529177 416.0887951116581C374.20393686762935 412.55146355143347 383.6322544978332 406.44102510339997 386.32428890844267 398.6686492540884C389.01632331905216 390.8962734047768 384.09571189258185 382.62662843315525 389.2236782862173 378.7813910349626C394.3516446798528 374.93615363677 403.72063602549713 376.2670304539345 410.9385275978931 380.2115097427638C418.15641917028904 384.15598903159304 422.97418081682 388.87551559573456 423.869557833718 397.7148916213429C424.7649348506159 406.5542676469512 420.96029205743963 418.9044835986371 415.236337279003 422.6405146656837 "></path>
        <path d="M417.90216837528845 398.286180160099C418.5737011379619 404.9157121793052 415.72021904307974 414.1783741430696 411.42725295925226 416.9803974433546C407.1342868754248 419.78242074363953 403.3794349484965 412.7595981817833 397.29593117291665 411.73589200146677C391.2124273973368 410.7121858211503 383.7999170222156 414.71960644800384 382.2264348364688 412.0666077778354C380.652952650722 409.4136091076669 387.7241908733749 404.8307802716418 389.743216681332 399.00149838465813C391.7622424892891 393.1722164976744 388.07178391943637 386.96998276895823 391.917758714663 384.0860547203137C395.7637335098896 381.20212667166925 402.7904770191229 382.2002842845427 408.20389569841984 385.1586437511646C413.61731437771675 388.11700321778653 417.23063561261506 391.6566481408927 417.90216837528845 398.286180160099C418.5737011379619 404.9157121793052 415.72021904307974 414.1783741430696 411.42725295925226 416.9803974433546 "></path>
        <path d="M411.934778916859 398.85745344006597C412.38246742530794 403.2771414528701 410.48014602871984 409.4522494287131 407.6181686395015 411.3202649622364C404.7561912502832 413.1882804957597 402.252956632331 408.5063987878555 398.1972874486111 407.82392800097784C394.1416182648912 407.14145721410017 389.19994468147706 409.8130709653359 388.1509565576459 408.0444051852236C387.10196843381465 406.27573940511127 391.8161272489166 403.2205201810945 393.16214445422133 399.33433225643876C394.5081616595261 395.44814433178294 392.0478559462909 391.31332184597215 394.6118391431087 389.3907031468758C397.1758223399264 387.4680844477795 401.86031801274856 388.1335228563618 405.46926379894654 390.1057625007764C409.0782095851445 392.078002145191 411.48709040841004 394.4377654272618 411.934778916859 398.85745344006597C412.38246742530794 403.2771414528701 410.48014602871984 409.4522494287131 407.6181686395015 411.3202649622364 "></path>
        <path d="M405.96738945842947 399.42872672003296C406.19123371265397 401.6385707264351 405.2400730143599 404.72612471435656 403.80908431975075 405.6601324811182C402.3780956251416 406.59414024787986 401.1264783161655 404.2531993939278 399.09864372430553 403.9119640004889C397.0708091324456 403.5707286070501 394.59997234073853 404.90653548266795 394.0754782788229 404.0222025926118C393.55098421690735 403.13786970255563 395.9080636244583 401.6102600905473 396.58107222711067 399.6671661282194C397.25408082976304 397.72407216589147 396.0239279731455 395.6566609229861 397.30591957155434 394.6953515734379C398.5879111699632 393.73404222388973 400.9301590063743 394.0667614281809 402.73463189947324 395.0528812503882C404.53910479257223 396.0390010725955 405.743545204205 397.2188827136309 405.96738945842947 399.42872672003296C406.19123371265397 401.6385707264351 405.2400730143599 404.72612471435656 403.80908431975075 405.6601324811182 "></path>
    </g>
</svg>