<svg id="visual" viewBox="0 0 960 540" width="960" height="540"
    xmlns="http://www.w3.org/2000/svg"
    xmlns:xlink="http://www.w3.org/1999/xlink" version="1.1">
    <rect x="0" y="0" width="960" height="540" fill="#e4bcff"></rect>
    <path d="M0 394L87 394L87 430L175 430L175 372L262 372L262 404L349 404L349 430L436 430L436 353L524 353L524 418L611 418L611 388L698 388L698 330L785 330L785 342L873 342L873 422L960 422L960 370L960 0L960 0L873 0L873 0L785 0L785 0L698 0L698 0L611 0L611 0L524 0L524 0L436 0L436 0L349 0L349 0L262 0L262 0L175 0L175 0L87 0L87 0L0 0Z" fill="#daa2ff"></path>
    <path d="M0 329L87 329L87 334L175 334L175 326L262 326L262 277L349 277L349 345L436 345L436 302L524 302L524 317L611 317L611 288L698 288L698 300L785 300L785 297L873 297L873 371L960 371L960 309L960 0L960 0L873 0L873 0L785 0L785 0L698 0L698 0L611 0L611 0L524 0L524 0L436 0L436 0L349 0L349 0L262 0L262 0L175 0L175 0L87 0L87 0L0 0Z" fill="#cc8ef6"></path>
    <path d="M0 282L87 282L87 303L175 303L175 255L262 255L262 255L349 255L349 238L436 238L436 297L524 297L524 223L611 223L611 294L698 294L698 262L785 262L785 305L873 305L873 290L960 290L960 225L960 0L960 0L873 0L873 0L785 0L785 0L698 0L698 0L611 0L611 0L524 0L524 0L436 0L436 0L349 0L349 0L262 0L262 0L175 0L175 0L87 0L87 0L0 0Z" fill="#bf7aed"></path>
    <path d="M0 208L87 208L87 202L175 202L175 213L262 213L262 233L349 233L349 233L436 233L436 171L524 171L524 178L611 178L611 188L698 188L698 266L785 266L785 182L873 182L873 200L960 200L960 211L960 0L960 0L873 0L873 0L785 0L785 0L698 0L698 0L611 0L611 0L524 0L524 0L436 0L436 0L349 0L349 0L262 0L262 0L175 0L175 0L87 0L87 0L0 0Z" fill="#b166e4"></path>
    <path d="M0 166L87 166L87 206L175 206L175 119L262 119L262 114L349 114L349 129L436 129L436 128L524 128L524 206L611 206L611 204L698 204L698 128L785 128L785 209L873 209L873 139L960 139L960 157L960 0L960 0L873 0L873 0L785 0L785 0L698 0L698 0L611 0L611 0L524 0L524 0L436 0L436 0L349 0L349 0L262 0L262 0L175 0L175 0L87 0L87 0L0 0Z" fill="#a351db"></path>
    <path d="M0 77L87 77L87 118L175 118L175 110L262 110L262 73L349 73L349 107L436 107L436 55L524 55L524 64L611 64L611 81L698 81L698 138L785 138L785 73L873 73L873 153L960 153L960 123L960 0L960 0L873 0L873 0L785 0L785 0L698 0L698 0L611 0L611 0L524 0L524 0L436 0L436 0L349 0L349 0L262 0L262 0L175 0L175 0L87 0L87 0L0 0Z" fill="#943ad2"></path>
    <path d="M0 38L87 38L87 71L175 71L175 88L262 88L262 58L349 58L349 68L436 68L436 81L524 81L524 104L611 104L611 88L698 88L698 41L785 41L785 104L873 104L873 57L960 57L960 101L960 0L960 0L873 0L873 0L785 0L785 0L698 0L698 0L611 0L611 0L524 0L524 0L436 0L436 0L349 0L349 0L262 0L262 0L175 0L175 0L87 0L87 0L0 0Z" fill="#851ec9"></path>
</svg>